# xmcd CD database file
# Copyright (C) 1993-1996 Ti Kan
#
# Track frame offsets:
# 150
# 18410
# 38952
# 58522
# 89607
# 108930
# 124377
# 153797
# 178897
# 201922
#
# Disc length: 2889 seconds
#
# Revision: 0
# Processed by: cddbd v1.4b41PL1 Copyright (c) Steve Scherf et al.
# Submitted via: inCDius 1.1d1
#
DISCID=860b470a
DTITLE=James Ibold's Imposters and the Bold Face Horns - Same
DYEAR=1900
DGENRE=
TTITLE0=Ibold frottement de pieds a la ville de fleuve
TTITLE1=Smokin' Bridge
TTITLE2=Rule of Thumb
TTITLE3=Halfway
TTITLE4=Election Day
TTITLE5=Don't Let Me Be Misunderstood
TTITLE6=Off The Cuff Blues
TTITLE7=Tornado Drunk
TTITLE8=Roses in the Morning Dew
TTITLE9=It's Goin' to Come Back on You
EXTD=
EXTT0=
EXTT1=
EXTT2=
EXTT3=
EXTT4=
EXTT5=
EXTT6=
EXTT7=
EXTT8=
EXTT9=
PLAYORDER=
